<svg xmlns="http://www.w3.org/2000/svg" xmlns:xlink="http://www.w3.org/1999/xlink" contentStyleType="text/css" data-diagram-type="CLASS" height="829px" preserveAspectRatio="none" style="width:600px;height:829px;background:#FFFFFF;" version="1.1" viewBox="0 0 600 829" width="600px" zoomAndPan="magnify"><?plantuml 1.2026.6?><defs/><g><!--class Person--><g class="entity" data-qualified-name="Person" data-source-line="7" id="ent0001"><rect fill="#FFFFFF" height="184.8564" rx="3" ry="3" style="stroke:#000000;stroke-width:1;" width="264.5127" x="12" y="416.64"/><ellipse cx="47.5347" cy="436.6737" fill="#FFFFFF" rx="9" ry="9" style="stroke:#000000;stroke-width:1;"/><path d="M50.941,438.6424 C50.2222,439.3143 48.9253,440.4862 47.1753,440.4862 C44.9566,440.4862 43.9878,438.5487 43.9878,436.5956 C43.9878,434.2049 45.4722,432.9393 47.1128,432.9393 C49.1285,432.9393 49.3472,434.4549 49.5191,435.5487 L50.941,435.3612 C50.8472,434.7831 50.7691,434.2049 50.7691,433.2362 C50.7691,432.5643 50.816,432.0174 50.8472,431.5956 L49.441,431.5956 L49.3316,432.5487 C48.7378,432.0174 48.0972,431.4706 46.8785,431.4706 C44.8316,431.4706 42.4253,433.2987 42.4253,436.6112 C42.4253,439.5487 44.191,441.9393 47.191,441.9393 C49.6285,441.9393 51.3316,440.3143 51.9253,439.7362 L50.941,438.6424 Z " fill="#000000"/><text fill="#000000" font-family="Verdana" font-size="12" font-style="italic" lengthAdjust="spacing" textLength="190.4355" x="62.5424" y="432.7787">&#171;Mongoose Document: people&#187;</text><text fill="#000000" font-family="'Liberation Sans', Arial, sans-serif" font-size="14" lengthAdjust="spacing" textLength="44.3584" x="135.581" y="448.7406">Person</text><line style="stroke:#000000;stroke-width:1;" x1="13" x2="275.5127" y1="456.7074" y2="456.7074"/><text fill="#000000" font-family="'Liberation Sans', Arial, sans-serif" font-size="14" lengthAdjust="spacing" textLength="164.5889" x="18" y="473.8392">+id: string &#171;UUID, unique&#187;</text><text fill="#000000" font-family="'Liberation Sans', Arial, sans-serif" font-size="14" lengthAdjust="spacing" textLength="110.0859" x="18" y="489.9379">+firstName: string</text><text fill="#000000" font-family="'Liberation Sans', Arial, sans-serif" font-size="14" lengthAdjust="spacing" textLength="109.3203" x="18" y="506.0365">+lastName: string</text><text fill="#000000" font-family="'Liberation Sans', Arial, sans-serif" font-size="14" lengthAdjust="spacing" textLength="194.9473" x="18" y="522.1351">+email: string &#171;unique, sparse&#187;</text><text fill="#000000" font-family="'Liberation Sans', Arial, sans-serif" font-size="14" lengthAdjust="spacing" textLength="218.2852" x="18" y="538.2337">+passwordHash: string &#171;salt:hash&#187;</text><text fill="#000000" font-family="'Liberation Sans', Arial, sans-serif" font-size="14" lengthAdjust="spacing" textLength="99.9961" x="18" y="554.3324">+birthday: string</text><text fill="#000000" font-family="'Liberation Sans', Arial, sans-serif" font-size="14" lengthAdjust="spacing" textLength="138.9131" x="18" y="570.431">+phoneNumber: string</text><text fill="#000000" font-family="'Liberation Sans', Arial, sans-serif" font-size="14" lengthAdjust="spacing" textLength="252.5127" x="18" y="586.5296">+emergencyContact: EmergencyContact</text><line style="stroke:#000000;stroke-width:1;" x1="13" x2="275.5127" y1="593.4964" y2="593.4964"/></g><!--class EmergencyContact--><g class="entity" data-qualified-name="EmergencyContact" data-source-line="18" id="ent0002"><rect fill="#FFFFFF" height="120.4619" rx="3" ry="3" style="stroke:#000000;stroke-width:1;" width="190.3887" x="49.06" y="693.6"/><ellipse cx="62.06" cy="713.6337" fill="#FFFFFF" rx="9" ry="9" style="stroke:#000000;stroke-width:1;"/><path d="M65.4663,715.6024 C64.7475,716.2743 63.4506,717.4462 61.7006,717.4462 C59.4819,717.4462 58.5131,715.5087 58.5131,713.5556 C58.5131,711.1649 59.9975,709.8993 61.6381,709.8993 C63.6538,709.8993 63.8725,711.4149 64.0444,712.5087 L65.4663,712.3212 C65.3725,711.7431 65.2944,711.1649 65.2944,710.1962 C65.2944,709.5243 65.3413,708.9774 65.3725,708.5556 L63.9663,708.5556 L63.8569,709.5087 C63.2631,708.9774 62.6225,708.4306 61.4038,708.4306 C59.3569,708.4306 56.9506,710.2587 56.9506,713.5712 C56.9506,716.5087 58.7163,718.8993 61.7163,718.8993 C64.1538,718.8993 65.8569,717.2743 66.4506,716.6962 L65.4663,715.6024 Z " fill="#000000"/><text fill="#000000" font-family="Verdana" font-size="12" font-style="italic" lengthAdjust="spacing" textLength="166.3887" x="72.06" y="709.7387">&#171;Embedded Subdocument&#187;</text><text fill="#000000" font-family="'Liberation Sans', Arial, sans-serif" font-size="14" lengthAdjust="spacing" textLength="119.0547" x="95.727" y="725.7006">EmergencyContact</text><line style="stroke:#000000;stroke-width:1;" x1="50.06" x2="238.4487" y1="733.6674" y2="733.6674"/><text fill="#000000" font-family="'Liberation Sans', Arial, sans-serif" font-size="14" lengthAdjust="spacing" textLength="110.0859" x="55.06" y="750.7992">+firstName: string</text><text fill="#000000" font-family="'Liberation Sans', Arial, sans-serif" font-size="14" lengthAdjust="spacing" textLength="109.3203" x="55.06" y="766.8979">+lastName: string</text><text fill="#000000" font-family="'Liberation Sans', Arial, sans-serif" font-size="14" lengthAdjust="spacing" textLength="138.9131" x="55.06" y="782.9965">+phoneNumber: string</text><text fill="#000000" font-family="'Liberation Sans', Arial, sans-serif" font-size="14" lengthAdjust="spacing" textLength="121.7891" x="55.06" y="799.0951">+relationship: string</text><line style="stroke:#000000;stroke-width:1;" x1="50.06" x2="238.4487" y1="806.0619" y2="806.0619"/></g><!--class Tour--><g class="entity" data-qualified-name="Tour" data-source-line="25" id="ent0003"><rect fill="#FFFFFF" height="297.5469" rx="3" ry="3" style="stroke:#000000;stroke-width:1;" width="247.3818" x="161.57" y="12"/><ellipse cx="193.8229" cy="32.0337" fill="#FFFFFF" rx="9" ry="9" style="stroke:#000000;stroke-width:1;"/><path d="M197.2291,34.0024 C196.5104,34.6743 195.2135,35.8462 193.4635,35.8462 C191.2448,35.8462 190.276,33.9087 190.276,31.9556 C190.276,29.5649 191.7604,28.2993 193.401,28.2993 C195.4166,28.2993 195.6354,29.8149 195.8073,30.9087 L197.2291,30.7212 C197.1354,30.1431 197.0573,29.5649 197.0573,28.5962 C197.0573,27.9243 197.1041,27.3774 197.1354,26.9556 L195.7291,26.9556 L195.6198,27.9087 C195.026,27.3774 194.3854,26.8306 193.1666,26.8306 C191.1198,26.8306 188.7135,28.6587 188.7135,31.9712 C188.7135,34.9087 190.4791,37.2993 193.4791,37.2993 C195.9166,37.2993 197.6198,35.6743 198.2135,35.0962 L197.2291,34.0024 Z " fill="#000000"/><text fill="#000000" font-family="Verdana" font-size="12" font-style="italic" lengthAdjust="spacing" textLength="180.5977" x="208.1013" y="28.1387">&#171;Mongoose Document: tours&#187;</text><text fill="#000000" font-family="'Liberation Sans', Arial, sans-serif" font-size="14" lengthAdjust="spacing" textLength="28.7861" x="284.0071" y="44.1006">Tour</text><line style="stroke:#000000;stroke-width:1;" x1="162.57" x2="407.9518" y1="52.0674" y2="52.0674"/><text fill="#000000" font-family="'Liberation Sans', Arial, sans-serif" font-size="14" lengthAdjust="spacing" textLength="164.5889" x="167.57" y="69.1992">+id: string &#171;UUID, unique&#187;</text><text fill="#000000" font-family="'Liberation Sans', Arial, sans-serif" font-size="14" lengthAdjust="spacing" textLength="85.21" x="167.57" y="85.2979">+name: string</text><text fill="#000000" font-family="'Liberation Sans', Arial, sans-serif" font-size="14" lengthAdjust="spacing" textLength="187.1201" x="167.57" y="101.3965">+date: string &#171;YYYY-MM-DD&#187;</text><text fill="#000000" font-family="'Liberation Sans', Arial, sans-serif" font-size="14" lengthAdjust="spacing" textLength="76.6377" x="167.57" y="117.4951">+time: string</text><text fill="#000000" font-family="'Liberation Sans', Arial, sans-serif" font-size="14" lengthAdjust="spacing" textLength="98.4443" x="167.57" y="133.5938">+location: string</text><text fill="#000000" font-family="'Liberation Sans', Arial, sans-serif" font-size="14" lengthAdjust="spacing" textLength="100.7617" x="167.57" y="149.6924">+difficulty: string</text><text fill="#000000" font-family="'Liberation Sans', Arial, sans-serif" font-size="14" lengthAdjust="spacing" textLength="95.334" x="167.57" y="165.791">+altitude: string</text><text fill="#000000" font-family="'Liberation Sans', Arial, sans-serif" font-size="14" lengthAdjust="spacing" textLength="102.334" x="167.57" y="181.8896">+distance: string</text><text fill="#000000" font-family="'Liberation Sans', Arial, sans-serif" font-size="14" lengthAdjust="spacing" textLength="89.0996" x="167.57" y="197.9883">+cost: number</text><text fill="#000000" font-family="'Liberation Sans', Arial, sans-serif" font-size="14" lengthAdjust="spacing" textLength="121.7822" x="167.57" y="214.0869">+travelRoute: string</text><text fill="#000000" font-family="'Liberation Sans', Arial, sans-serif" font-size="14" lengthAdjust="spacing" textLength="131.8926" x="167.57" y="230.1855">+requirements: string</text><text fill="#000000" font-family="'Liberation Sans', Arial, sans-serif" font-size="14" lengthAdjust="spacing" textLength="102.334" x="167.57" y="246.2842">+gpxData: string</text><text fill="#000000" font-family="'Liberation Sans', Arial, sans-serif" font-size="14" lengthAdjust="spacing" textLength="190.9824" x="167.57" y="262.3828">+securityMatrix: SecurityMatrix</text><text fill="#000000" font-family="'Liberation Sans', Arial, sans-serif" font-size="14" lengthAdjust="spacing" textLength="235.3818" x="167.57" y="278.4814">+tourManagerIds: string[] &#171;UUID Ref&#187;</text><text fill="#000000" font-family="'Liberation Sans', Arial, sans-serif" font-size="14" lengthAdjust="spacing" textLength="220.5957" x="167.57" y="294.5801">+participantIds: string[] &#171;UUID Ref&#187;</text><line style="stroke:#000000;stroke-width:1;" x1="162.57" x2="407.9518" y1="301.5469" y2="301.5469"/></g><!--class SecurityMatrix--><g class="entity" data-qualified-name="SecurityMatrix" data-source-line="43" id="ent0004"><rect fill="#FFFFFF" height="217.0537" rx="3" ry="3" style="stroke:#000000;stroke-width:1;" width="227.9814" x="332.27" y="400.54"/><ellipse cx="347.4079" cy="420.5737" fill="#FFFFFF" rx="9" ry="9" style="stroke:#000000;stroke-width:1;"/><path d="M350.8142,422.5424 C350.0954,423.2143 348.7986,424.3862 347.0486,424.3862 C344.8298,424.3862 343.8611,422.4487 343.8611,420.4956 C343.8611,418.1049 345.3454,416.8393 346.9861,416.8393 C349.0017,416.8393 349.2204,418.3549 349.3923,419.4487 L350.8142,419.2612 C350.7204,418.6831 350.6423,418.1049 350.6423,417.1362 C350.6423,416.4643 350.6892,415.9174 350.7204,415.4956 L349.3142,415.4956 L349.2048,416.4487 C348.6111,415.9174 347.9704,415.3706 346.7517,415.3706 C344.7048,415.3706 342.2986,417.1987 342.2986,420.5112 C342.2986,423.4487 344.0642,425.8393 347.0642,425.8393 C349.5017,425.8393 351.2048,424.2143 351.7986,423.6362 L350.8142,422.5424 Z " fill="#000000"/><text fill="#000000" font-family="Verdana" font-size="12" font-style="italic" lengthAdjust="spacing" textLength="199.2305" x="357.883" y="416.6787">&#171;Embedded Object (3x3 Matrix)&#187;</text><text fill="#000000" font-family="'Liberation Sans', Arial, sans-serif" font-size="14" lengthAdjust="spacing" textLength="88.6826" x="413.157" y="432.6406">SecurityMatrix</text><line style="stroke:#000000;stroke-width:1;" x1="333.27" x2="559.2514" y1="440.6074" y2="440.6074"/><text fill="#000000" font-family="'Liberation Sans', Arial, sans-serif" font-size="14" lengthAdjust="spacing" textLength="121.7822" x="338.27" y="457.7392">+participants: string</text><text fill="#000000" font-family="'Liberation Sans', Arial, sans-serif" font-size="14" lengthAdjust="spacing" textLength="121.0029" x="338.27" y="473.8379">+cloudCover: string</text><text fill="#000000" font-family="'Liberation Sans', Arial, sans-serif" font-size="14" lengthAdjust="spacing" textLength="125.6787" x="338.27" y="489.9365">+precipitation: string</text><text fill="#000000" font-family="'Liberation Sans', Arial, sans-serif" font-size="14" lengthAdjust="spacing" textLength="98.417" x="338.27" y="506.0351">+visibility: string</text><text fill="#000000" font-family="'Liberation Sans', Arial, sans-serif" font-size="14" lengthAdjust="spacing" textLength="78.9824" x="338.27" y="522.1338">+wind: string</text><text fill="#000000" font-family="'Liberation Sans', Arial, sans-serif" font-size="14" lengthAdjust="spacing" textLength="168.4785" x="338.27" y="538.2324">+temperature2000m: string</text><text fill="#000000" font-family="'Liberation Sans', Arial, sans-serif" font-size="14" lengthAdjust="spacing" textLength="215.9814" x="338.27" y="554.331">+avalancheDanger: number &#171;1..5&#187;</text><text fill="#000000" font-family="'Liberation Sans', Arial, sans-serif" font-size="14" lengthAdjust="spacing" textLength="152.9199" x="338.27" y="570.4296">+dangerSources: string[]</text><text fill="#000000" font-family="'Liberation Sans', Arial, sans-serif" font-size="14" lengthAdjust="spacing" textLength="161.4922" x="338.27" y="586.5283">+dangerLocations: string[]</text><text fill="#000000" font-family="'Liberation Sans', Arial, sans-serif" font-size="14" lengthAdjust="spacing" textLength="142.0098" x="338.27" y="602.6269">+otherHazards: string[]</text><line style="stroke:#000000;stroke-width:1;" x1="333.27" x2="559.2514" y1="609.5937" y2="609.5937"/></g><!--reverse link Person to EmergencyContact--><g class="link" data-entity-1="ent0001" data-entity-2="ent0002" data-link-type="composition" data-source-line="56" id="lnk5"><path codeLine="56" d="M144.26,613.85 C144.26,644.46 144.26,665.75 144.26,693.26" fill="none" id="Person-backto-EmergencyContact" style="stroke:#000000;stroke-width:1;"/><polygon fill="#000000" points="144.26,601.85,140.26,607.85,144.26,613.85,148.26,607.85,144.26,601.85" style="stroke:#000000;stroke-width:1;stroke-linejoin:miter;stroke-miterlimit:10;"/><text fill="#000000" font-family="'Liberation Sans', Arial, sans-serif" font-size="13" lengthAdjust="spacing" textLength="128.6353" x="145.26" y="660.7938">eingebettet (_id: false)</text><text fill="#000000" font-family="'Liberation Sans', Arial, sans-serif" font-size="13" lengthAdjust="spacing" textLength="7.23" x="136.827" y="682.8571">1</text></g><!--reverse link Tour to SecurityMatrix--><g class="link" data-entity-1="ent0003" data-entity-2="ent0004" data-link-type="composition" data-source-line="57" id="lnk6"><path codeLine="57" d="M376.2694,320.4316 C381.3194,330.4316 380.76,329.73 385.26,339.54 C394.14,358.92 402.64,379.99 410.32,400.47" fill="none" id="Tour-backto-SecurityMatrix" style="stroke:#000000;stroke-width:1;"/><polygon fill="#000000" points="370.86,309.72,369.9941,316.8789,376.2694,320.4316,377.1352,313.2727,370.86,309.72" style="stroke:#000000;stroke-width:1;stroke-linejoin:miter;stroke-miterlimit:10;"/><text fill="#000000" font-family="'Liberation Sans', Arial, sans-serif" font-size="13" lengthAdjust="spacing" textLength="186.4307" x="397.94" y="360.2338">eingebettet (dynamische Felder)</text><text fill="#000000" font-family="'Liberation Sans', Arial, sans-serif" font-size="13" lengthAdjust="spacing" textLength="21.6836" x="385.7906" y="389.8498">0..1</text></g><!--reverse link Tour to Person--><g class="link" data-entity-1="ent0003" data-entity-2="ent0001" data-link-type="aggregation" data-source-line="59" id="lnk7"><path codeLine="59" d="M153.7434,281.7079 C137.4534,302.3379 130.62,315.59 121.26,339.54 C111.85,363.61 111.56,390.91 115.26,416.43" fill="none" id="Tour-backto-Person" style="stroke:#000000;stroke-width:1;"/><polygon fill="none" points="161.18,272.29,154.3224,274.5201,153.7434,281.7079,160.601,279.4778,161.18,272.29" style="stroke:#000000;stroke-width:1;stroke-linejoin:miter;stroke-miterlimit:10;"/><text fill="#000000" font-family="'Liberation Sans', Arial, sans-serif" font-size="13" lengthAdjust="spacing" textLength="91.0508" x="136.3328" y="352.7338">tourManagerIds</text><text fill="#000000" font-family="'Liberation Sans', Arial, sans-serif" font-size="13" lengthAdjust="spacing" textLength="119.1963" x="122.26" y="367.6826">(Referenz per UUID)</text><text fill="#000000" font-family="'Liberation Sans', Arial, sans-serif" font-size="13" lengthAdjust="spacing" textLength="19.5127" x="92.8543" y="405.7921">1..*</text></g><!--reverse link Tour to Person--><g class="link" data-entity-1="ent0003" data-entity-2="ent0001" data-link-type="aggregation" data-source-line="60" id="lnk8"><path codeLine="60" d="M263.3446,321.6579 C258.1946,342.4479 254.55,351.53 246.26,370.54 C239.42,386.21 230.51,401.78 220.8,416.5" fill="none" id="Tour-backto-Person-1" style="stroke:#000000;stroke-width:1;"/><polygon fill="none" points="266.23,310.01,260.9047,314.8722,263.3446,321.6579,268.67,316.7958,266.23,310.01" style="stroke:#000000;stroke-width:1;stroke-linejoin:miter;stroke-miterlimit:10;"/><text fill="#000000" font-family="'Liberation Sans', Arial, sans-serif" font-size="13" lengthAdjust="spacing" textLength="77.3208" x="278.4577" y="352.7338">participantIds</text><text fill="#000000" font-family="'Liberation Sans', Arial, sans-serif" font-size="13" lengthAdjust="spacing" textLength="119.1963" x="257.52" y="367.6826">(Referenz per UUID)</text><text fill="#000000" font-family="'Liberation Sans', Arial, sans-serif" font-size="13" lengthAdjust="spacing" textLength="19.5127" x="207.7939" y="405.8683">0..*</text></g><?plantuml-src bLHDJzj04BtdLsnz0agYKDGUeWW94H18X5Qa7AgsgYQxutZQzQxPZq2e-jyxSHpNiQ4Ilda-txmtEsz2XZcAGWEPdlz5fW07kL2OGjJXmffm0-nFhccE3W9P8sPWV78eJXs1FXIU__eU7QMDT6UZKT8wWqvyQDXz1ie-a5c85BJ7XaTgyFuq14Vp6F1AMZEZ9nJ3Ng_qY4_eFFSUZwVMBAprA2PMnXnD68a2RQ7nv4JyxWd-tWfI8-6v5FSPZ-_khYQ78XgwZnnJHQJaV3dPDh2oSw_dp9W3wKRDJJKUdi7xVrKBHlfWdRe4dpMYFUWmojXM1yx9XKp1gjMcoAp1cvWprHq0w1PevEgC5G79Gv-tBBq_MwhQ7aPmpYMLGYLcSQugtXfylPADbs4wrEME-8oAsbK3-soZUrx1m1x_AW5D5vQ2W8sqB_prfzF-P58d1UgEQ6M9k5sBqfGalu2sH2mbXQWwlSa7CB9jbjRpTAQaQel1mHBrhOq1E-JTHtAuPiItN8lYSG81MbQFCZeAgocmzN4aPZl_stvCxHGCBD1TgRhkr-yLiU8MqyR-ka2I2Z3XFx6rdhlzcclsSVuJUV7sZX-FnSQxtr2tqQOzgDGsgZExx6nMuP0pA3mdrf8ypKbJHoo-DAfb2fWNwqCM7RuR3eTvMzubQDOnmmcOnHh4HZkUxMWmU5yJfKhlZAcLsE1fntjTRLRNR_dckaju0jSaUSrhTUKE-dsH72NTbpmI2N8mpZ44P7v_h1zAUKhtarxvlChKuM30sIrvshbgnM-8FCygBb0hT5nYKyEMxGU3WsHxTZbtTu--cJrU1dHedlZyEh5UZoq4Mq7OITzThHVI_m80?></g></svg>